<svg width="26" height="26" fill="none" xmlns="http://www.w3.org/2000/svg"><g clip-path="url(#clip0)" fill="#fff"><path d="M8.43 16.809h13.762a.76.76 0 00.732-.553L25.97 5.592a.761.761 0 00-.733-.97H6.671L6.127 2.17a.762.762 0 00-.744-.597H.762a.761.761 0 100 1.524h4.01l2.75 12.378a2.287 2.287 0 00-1.377 2.095 2.288 2.288 0 002.285 2.285h13.762a.761.761 0 100-1.524H8.43a.763.763 0 010-1.523zM7.668 22.141a2.288 2.288 0 002.285 2.285 2.288 2.288 0 002.286-2.285 2.288 2.288 0 00-2.286-2.285 2.288 2.288 0 00-2.285 2.285zM18.383 22.141a2.288 2.288 0 002.285 2.285 2.288 2.288 0 002.285-2.285 2.288 2.288 0 00-2.285-2.285 2.288 2.288 0 00-2.285 2.285z"/></g><defs><clipPath id="clip0"><path fill="#fff" d="M0 0h26v26H0z"/></clipPath></defs></svg>