<svg width="18" height="18" fill="none" xmlns="http://www.w3.org/2000/svg"><path fill-rule="evenodd" clip-rule="evenodd" d="M8.023 5.895c.464-.592.63-1.215.106-1.766-1.178-1.56-1.97-2.524-2.467-2.989-.944-.883-2.498-.764-3.316 0-.44.41-.588.55-1.04.984-2.512 2.38-.98 7.41 3.094 11.27 4.073 3.859 9.388 5.31 11.906 2.925.417-.38.77-.713 1.047-.991.802-.803.923-2.208-.005-3.121-.476-.469-1.448-1.182-3.165-2.345-.527-.445-1.15-.349-1.722.006-.275.171-.475.344-.853.702l-.686.65c-.09.085-1.318-.496-2.51-1.625-1.192-1.13-1.806-2.291-1.716-2.377l.687-.65c.12-.114.177-.169.25-.242a4.7 4.7 0 00.39-.43zm4.165 6.524l.686-.65c.208-.197.343-.319.452-.402 1.505 1.023 2.376 1.665 2.732 2.015.214.21.18.594-.005.78-.257.257-.591.573-1.001.947-1.628 1.542-5.919.37-9.386-2.914C2.198 8.91.961 4.848 2.577 3.318c.45-.432.592-.567 1.025-.97.162-.152.605-.186.802-.001.383.357 1.092 1.217 2.136 2.593a3.652 3.652 0 01-.203.217c-.06.06-.111.108-.22.212l-.687.65c-1.167 1.105-.173 2.985 1.716 4.774 1.888 1.789 3.875 2.73 5.042 1.626z" fill="#fff"/></svg>