<svg width="31" height="30" fill="none" xmlns="http://www.w3.org/2000/svg"><path d="M19.259 7.878c-.923-.043-1.2-.05-3.536-.05-2.337 0-2.613.008-3.535.05-2.374.108-3.48 1.232-3.588 3.587-.041.922-.051 1.199-.051 3.535 0 2.336.01 2.613.051 3.536.109 2.349 1.209 3.479 3.588 3.588.92.041 1.198.051 3.535.051s2.613-.009 3.536-.051c2.374-.108 3.477-1.235 3.587-3.588.042-.922.05-1.2.05-3.536 0-2.336-.008-2.613-.05-3.535-.11-2.354-1.216-3.479-3.587-3.587zm-3.536 11.616a4.494 4.494 0 110-8.988 4.494 4.494 0 010 8.988zm4.67-8.114a1.05 1.05 0 110-2.1 1.05 1.05 0 010 2.1zM18.64 15a2.916 2.916 0 11-5.833 0 2.916 2.916 0 015.833 0zM15.723 0c-8.284 0-15 6.716-15 15 0 8.284 6.716 15 15 15 8.283 0 15-6.716 15-15 0-8.284-6.717-15-15-15zm8.697 18.608c-.144 3.18-1.915 4.943-5.089 5.09-.933.042-1.232.052-3.608.052-2.377 0-2.674-.01-3.608-.052-3.18-.147-4.944-1.912-5.09-5.09-.042-.933-.052-1.232-.052-3.608 0-2.376.01-2.674.052-3.607.146-3.18 1.911-4.944 5.09-5.09.934-.043 1.231-.053 3.608-.053 2.376 0 2.675.01 3.608.054 3.182.146 4.947 1.915 5.09 5.088.042.934.052 1.232.052 3.608 0 2.376-.01 2.675-.053 3.608z" fill="#BBC4D6"/></svg>