<svg width="135" height="27" fill="none" xmlns="http://www.w3.org/2000/svg"><path fill-rule="evenodd" clip-rule="evenodd" d="M29.177 25.79h-7.082l-1.001-1.309a41.348 41.348 0 01-3.696 1.232c-1.077.23-2.232.385-3.54.385-4.312 0-7.7-1.078-10.086-3.157C1.232 20.786 0 17.476 0 13.241c0-4.31 1.155-7.621 3.387-9.854C5.697 1.155 9.161 0 13.857 0 18.4 0 21.864 1.232 24.25 3.618c2.079 2.079 3.08 4.773 3.08 8.007 0 2.386-.077 4.157-.308 5.235-.308 1.693-1.078 3.31-2.156 4.773l4.311 4.157zm-8.083-12.78c0-2.31-.462-4.157-1.463-5.62-1.232-1.847-3.233-2.77-5.85-2.77-2.464 0-4.389.692-5.62 2.155-1.232 1.385-1.848 3.464-1.848 6.158 0 3.003.693 5.235 2.155 6.621 1.309 1.232 3.234 1.848 5.774 1.848 2.31 0 4.003-.693 5.158-2.079 1.155-1.463 1.694-3.541 1.694-6.313zM55.891 17.86c0 2.233-.77 4.08-2.232 5.62-1.463 1.54-3.31 2.233-5.62 2.233H30.332V21.17h14.704c1.001 0 1.848-.231 2.464-.693.77-.539 1.155-1.232 1.155-2.156 0-2.155-1.54-3.233-4.542-3.233h-7.39c-2.156 0-4.004-.693-5.62-2.002-1.617-1.308-2.387-3.002-2.387-5.08 0-2.233.77-4.08 2.386-5.467 1.54-1.385 3.619-2.078 6.236-2.078h17.014v4.311h-15.09c-.692 0-1.385.308-2 .847-.77.539-1.079 1.232-1.079 2.001 0 .847.308 1.617 1.001 2.156.693.616 1.463.847 2.387.847h8.16c2.54 0 4.542.693 6.005 2.001 1.463 1.31 2.155 3.08 2.155 5.235zM84.991 13.01c0 4.928-1.385 8.392-4.08 10.547-2.232 1.694-5.466 2.54-9.623 2.54-4.696 0-8.16-1-10.393-2.925-2.463-2.155-3.695-5.62-3.695-10.393 0-3.926 1.078-7.005 3.31-9.16C62.897 1.231 66.438.076 71.211.076c5.235 0 8.853 1.155 11.009 3.387 1.847 2.002 2.771 5.158 2.771 9.546zm-6.466-.153c0-2.464-.616-4.466-1.771-5.928-1.309-1.617-3.31-2.464-5.85-2.464-2.541 0-4.466.847-5.775 2.618-1.077 1.462-1.616 3.387-1.616 5.697 0 2.694.462 4.696 1.308 6.004 1.232 1.77 3.388 2.695 6.698 2.695 2.771 0 4.696-.847 5.774-2.618.847-1.232 1.232-3.31 1.232-6.005zM110.319 15.166H92.92v10.47h-6.236V10.162c0-.924.154-2.002.54-3.156.692-2.079 2-3.619 3.925-4.696C93.382 1.078 97.077.462 102.158.462h32.565v4.234h-9.393v20.94h-5.85V4.696c-6.005 0-11.702-.077-17.707-.077-2.31 0-3.926.154-4.85.385-1.616.385-2.694 1.309-3.387 2.617-.539 1.001-.77 2.079-.77 3.31h17.553v4.235z" fill="#768298"/></svg>