<svg width="136" height="31" fill="none" xmlns="http://www.w3.org/2000/svg"><g clip-path="url(#clip0)"><path fill-rule="evenodd" clip-rule="evenodd" d="M14.802.087A15.076 15.076 0 0129.7 19.144a2.52 2.52 0 11-4.86-1.331A10.04 10.04 0 0014.92 5.125a10.036 10.036 0 00-9.306 13.144 10.038 10.038 0 009.396 6.929 2.52 2.52 0 01-.074 5.039A15.076 15.076 0 01.782 10.62a15.078 15.078 0 015.321-7.515L7.617 5.12 6.103 3.106a15.076 15.076 0 018.699-3.02z" fill="#fff"/><path d="M26.5 24.97a3.82 3.82 0 11-7.641 0 3.82 3.82 0 017.64 0z" fill="#F95A59"/><path fill-rule="evenodd" clip-rule="evenodd" d="M60.833 24.117h-4.98l-.704-.92c-.974.379-1.84.65-2.598.866-.758.163-1.57.27-2.49.27-3.03 0-5.412-.757-7.09-2.218-1.786-1.516-2.653-3.843-2.653-6.82 0-3.032.812-5.36 2.382-6.929 1.624-1.57 4.06-2.381 7.361-2.381 3.194 0 5.63.866 7.307 2.544 1.462 1.461 2.166 3.355 2.166 5.629 0 1.678-.054 2.923-.217 3.68-.216 1.191-.758 2.328-1.516 3.356l3.032 2.923zm-5.684-8.985c0-1.624-.325-2.923-1.028-3.951-.866-1.3-2.274-1.949-4.114-1.949-1.732 0-3.085.487-3.951 1.516-.866.974-1.3 2.436-1.3 4.33 0 2.111.488 3.68 1.516 4.655.92.866 2.274 1.299 4.06 1.299 1.624 0 2.815-.487 3.627-1.461.811-1.029 1.19-2.49 1.19-4.439zM79.615 18.542c0 1.57-.541 2.869-1.57 3.951-1.028 1.083-2.327 1.57-3.95 1.57h-12.45V20.87h10.338c.704 0 1.3-.163 1.732-.488.542-.378.812-.866.812-1.515 0-1.516-1.082-2.273-3.193-2.273h-5.197c-1.515 0-2.814-.488-3.95-1.408-1.137-.92-1.679-2.11-1.679-3.572 0-1.57.542-2.869 1.678-3.843 1.083-.974 2.544-1.462 4.385-1.462h11.962v3.032h-10.61c-.486 0-.974.216-1.407.595-.54.379-.757.866-.757 1.407 0 .596.216 1.137.703 1.516.487.433 1.029.595 1.678.595h5.738c1.786 0 3.193.487 4.222 1.407 1.028.92 1.515 2.166 1.515 3.681zM100.075 15.132c0 3.464-.974 5.9-2.868 7.416-1.57 1.19-3.843 1.786-6.766 1.786-3.302 0-5.738-.704-7.308-2.057-1.732-1.516-2.598-3.951-2.598-7.307 0-2.76.758-4.926 2.328-6.441 1.678-1.678 4.168-2.49 7.523-2.49 3.681 0 6.225.812 7.74 2.381 1.3 1.408 1.949 3.627 1.949 6.712zm-4.546-.108c0-1.732-.433-3.14-1.245-4.168-.92-1.137-2.328-1.732-4.114-1.732s-3.14.595-4.06 1.84c-.757 1.029-1.136 2.382-1.136 4.006 0 1.894.325 3.301.92 4.222.866 1.245 2.381 1.894 4.709 1.894 1.949 0 3.302-.595 4.06-1.84.595-.866.866-2.328.866-4.222zM117.883 16.648H105.65v7.361h-4.384v-10.88c0-.65.108-1.407.379-2.219.487-1.461 1.407-2.544 2.76-3.302 1.57-.866 4.168-1.299 7.74-1.299h22.896v2.977h-6.603V24.01h-4.114V9.286c-4.222 0-8.227-.054-12.449-.054-1.624 0-2.761.109-3.41.27-1.137.272-1.895.921-2.382 1.841-.379.704-.541 1.462-.541 2.328h12.341v2.977z" fill="#F95A59"/></g><defs><clipPath id="clip0"><path fill="#fff" d="M0 0h135.041v30.318H0z"/></clipPath></defs></svg>
